<svg width="32" height="32" viewBox="0 0 32 32" fill="none" xmlns="http://www.w3.org/2000/svg">
<path d="M24.4533 17.1067C24.1733 16.6133 23.92 15.68 23.92 15.1333V11.76C23.92 8.62666 22.08 5.92 19.4266 4.65333C18.7333 3.42666 17.4533 2.66666 15.9866 2.66666C14.5333 2.66666 13.2266 3.45333 12.5333 4.69333C9.9333 5.98666 8.1333 8.66666 8.1333 11.76V15.1333C8.1333 15.68 7.87996 16.6133 7.59996 17.0933L6.2533 19.32C5.71996 20.2133 5.59996 21.2 5.9333 22.1067C6.2533 23 7.0133 23.6933 7.99996 24.0267C10.5866 24.9067 13.3066 25.3333 16.0266 25.3333C18.7466 25.3333 21.4666 24.9067 24.0533 24.04C24.9866 23.7333 25.7066 23.0267 26.0533 22.1067C26.4 21.1867 26.3066 20.1733 25.7866 19.32L24.4533 17.1067Z" fill="white"/>
<path d="M15.9996 29.3333C14.9463 29.3333 13.9063 28.9067 13.173 28.1467C12.7463 27.7467 12.4263 27.2133 12.2396 26.6667C12.413 26.6933 12.5863 26.7067 12.773 26.7333C13.0796 26.7733 13.3996 26.8133 13.7196 26.84C14.4796 26.9067 15.253 26.9467 16.0263 26.9467C16.7863 26.9467 17.5463 26.9067 18.293 26.84C18.573 26.8133 18.853 26.8 19.1196 26.76C19.333 26.7333 19.5463 26.7067 19.773 26.68C19.213 28.2267 17.733 29.3333 15.9996 29.3333Z" fill="white"/>
</svg>
