<svg width="40" height="40" viewBox="0 0 40 40" fill="none" xmlns="http://www.w3.org/2000/svg">
<path fill-rule="evenodd" clip-rule="evenodd" d="M17.67 24.4739L16.95 22.3139L14.79 21.5939C10.83 20.2739 10 18.6039 10 17.4239C10 16.2539 10.83 14.5739 14.79 13.2439L23.28 10.4139C25.4 9.70387 27.17 9.91387 28.26 10.9939C29.35 12.0739 29.56 13.8539 28.85 15.9739L26.02 24.4639C24.69 28.4439 23.02 29.2739 21.84 29.2739C20.66 29.2739 18.99 28.4439 17.67 24.4739ZM11.49 17.4239C11.49 18.1439 12.48 19.2439 15.26 20.1639L17.78 21.0039C18 21.0739 18.18 21.2539 18.25 21.4739L19.09 23.9939C20.01 26.7739 21.12 27.7639 21.84 27.7639C22.56 27.7639 23.66 26.7739 24.59 23.9939L27.42 15.5039C27.93 13.9639 27.84 12.7039 27.19 12.0539C26.54 11.4039 25.28 11.3239 23.75 11.8339L15.26 14.6739C12.48 15.6039 11.49 16.7039 11.49 17.4239Z" fill="white"/>
<path d="M17.1999 21.8238C16.9099 21.5338 16.9099 21.0538 17.1999 20.7638L20.7799 17.1738C21.0699 16.8838 21.5499 16.8838 21.8399 17.1738C22.1299 17.4638 22.1299 17.9438 21.8399 18.2338L18.2599 21.8238C18.1199 21.9738 17.9199 22.0438 17.7299 22.0438C17.5399 22.0438 17.3499 21.9738 17.1999 21.8238Z" fill="white"/>
</svg>
