<svg width="24" height="24" viewBox="0 0 24 24" fill="none" xmlns="http://www.w3.org/2000/svg">
<path d="M15 10L19.553 7.724C19.7054 7.64831 19.8754 7.61393 20.0451 7.62458C20.2149 7.63524 20.3786 7.69052 20.5193 7.78476C20.6601 7.879 20.7726 8.00895 20.8453 8.16138C20.918 8.31382 20.9483 8.48305 20.933 8.651L20.933 15.349C20.9483 15.517 20.918 15.6862 20.8453 15.8386C20.7726 15.991 20.6601 16.121 20.5193 16.2152C20.3786 16.3095 20.2149 16.3648 20.0451 16.3754C19.8754 16.3861 19.7054 16.3517 19.553 16.276L15 14V10Z" stroke="white" stroke-width="2" stroke-linecap="round" stroke-linejoin="round"/>
<rect x="3" y="6" width="12" height="12" rx="2" stroke="white" stroke-width="2" stroke-linecap="round" stroke-linejoin="round"/>
</svg>
